Coordinates
version=1
nRows=14
nColumns=40
inDegrees=yes

Units are S.I. units (second, meters, Newtons, ...)
If the header above contains a line with 'inDegrees', this indicates whether rotational values are in degrees (yes) or radians (no).

endheader
time	pelvis_tilt	pelvis_list	pelvis_rotation	pelvis_tx	pelvis_ty	pelvis_tz	hip_flexion_r	hip_adduction_r	hip_rotation_r	knee_angle_r	knee_angle_r_beta	ankle_angle_r	subtalar_angle_r	mtp_angle_r	hip_flexion_l	hip_adduction_l	hip_rotation_l	knee_angle_l	knee_angle_l_beta	ankle_angle_l	subtalar_angle_l	mtp_angle_l	lumbar_extension	lumbar_bending	lumbar_rotation	arm_flex_r	arm_add_r	arm_rot_r	elbow_flex_r	pro_sup_r	wrist_flex_r	wrist_dev_r	arm_flex_l	arm_add_l	arm_rot_l	elbow_flex_l	pro_sup_l	wrist_flex_l	wrist_dev_l
      1.33055556	      9.76429249	     -6.84448938	    -89.85373126	      0.81691227	      0.75314013	      0.14456522	     38.99997578	    -46.93617055	     39.70709300	     57.93585820	      1.01117148	     18.25618182	      0.00000000	      0.00000000	     41.86904477	    -31.97168823	     24.89102675	     54.30677166	      0.94783197	    -14.94505047	      0.00000000	      0.00000000	    -20.92910685	     16.95821576	    -32.78907099	    -89.86027516	    -64.21082060	    -47.68928816	     77.25861038	     49.58768118	      0.00000000	      0.00000000	    -67.49855230	    -78.04138759	     23.39118255	     23.32644403	      5.54931846	      0.00000000	      0.00000000
      1.33333333	      9.58297848	     -7.14363704	    -89.82034481	      0.82201098	      0.75318650	      0.14615657	     37.75766778	    -46.81585745	     39.74244589	     57.33246313	      1.00064025	     18.01325063	      0.00000000	      0.00000000	     41.13364144	    -32.93596859	     24.01328751	     54.41811638	      0.94977530	    -15.15996238	      0.00000000	      0.00000000	    -21.13622361	     16.68535051	    -33.25428753	    -89.87917853	    -63.07077590	    -50.59399597	     79.42732997	     52.21893661	      0.00000000	      0.00000000	    -72.92081929	    -76.26294557	     14.85331134	     26.38870089	      7.00436057	      0.00000000	      0.00000000
      1.33611111	      9.36039893	     -7.12329329	    -89.76475064	      0.82750762	      0.75295392	      0.14788992	     36.82445201	    -46.65696162	     39.77255080	     56.73484412	      0.99020983	     17.64942593	      0.00000000	      0.00000000	     40.78817522	    -33.87378060	     23.18554784	     54.56027648	      0.95225647	    -15.40538333	      0.00000000	      0.00000000	    -20.92809439	     16.52598647	    -33.56794032	    -89.89549043	    -61.52382801	    -53.52654512	     82.23484864	     52.39066964	      0.00000000	      0.00000000	    -72.90111609	    -74.34503695	     14.12875696	     26.97253537	      7.69330299	      0.00000000	      0.00000000
      1.33888889	      9.23887696	     -7.47415797	    -89.70769583	      0.83123429	      0.75256570	      0.14896750	     35.85795111	    -46.63622137	     39.78512861	     56.36633342	      0.98377811	     17.48052417	      0.00000000	      0.00000000	     40.21846498	    -34.52344005	     22.54387654	     54.70213170	      0.95473231	    -15.45262105	      0.00000000	      0.00000000	    -21.32157637	     16.23308034	    -34.48470332	    -89.89648393	    -61.90166128	    -54.90272285	     83.70344462	     52.02895600	      0.00000000	      0.00000000	    -83.05181853	    -71.97240736	     -2.71574227	     34.27439058	      9.27073515	      0.00000000	      0.00000000
      1.34166667	      9.08718842	     -7.58461239	    -89.56626410	      0.83729028	      0.75210777	      0.15082066	     34.76546832	    -46.64348590	     39.80042649	     55.74125703	      0.97286846	     17.12268341	      0.00000000	      0.00000000	     39.77705647	    -35.37094222	     21.62167756	     54.88206454	      0.95787273	    -15.58431059	      0.00000000	      0.00000000	    -21.26854771	     15.93689543	    -35.17098603	    -89.90399437	    -61.05982515	    -57.47883778	     86.19004904	     52.55071305	      0.00000000	      0.00000000	    -85.72909386	    -69.22806102	     -8.56997313	     37.96707494	     10.13015080	      0.00000000	      0.00000000
      1.34444444	      9.08036717	     -7.73035861	    -89.29385360	      0.84374492	      0.75182273	      0.15286221	     33.54570779	    -46.87205828	     39.80838397	     55.04713250	      0.96075371	     16.69083035	      0.00000000	      0.00000000	     39.26109548	    -36.00150929	     20.64084447	     55.04658295	      0.96074411	    -15.63747541	      0.00000000	      0.00000000	    -21.15972121	     15.53810197	    -35.87861391	    -89.91037893	    -60.05891335	    -60.00283483	     88.79045117	     52.67460970	      0.00000000	      0.00000000	    -86.82208374	    -66.69067041	    -11.89418656	     40.71739120	     10.91880071	      0.00000000	      0.00000000
      1.34722222	      9.16061100	     -7.63463558	    -88.87192129	      0.85073424	      0.75092594	      0.15483784	     32.57786307	    -47.25480554	     39.81058269	     54.40702929	      0.94958180	     16.19401584	      0.00000000	      0.00000000	     39.13628844	    -36.43186486	     19.76213771	     55.32091471	      0.96553211	    -15.62972699	      0.00000000	      0.00000000	    -20.73405143	     15.08158379	    -36.63306402	    -89.91578724	    -58.91080177	    -62.46248894	     91.41468155	     52.77510548	      0.00000000	      0.00000000	    -87.57122365	    -64.27000229	    -14.63775385	     43.45932218	     11.23788576	      0.00000000	      0.00000000
      1.35000000	      9.33352393	     -7.55959448	    -88.33989246	      0.85795662	      0.75006397	      0.15677060	     31.50631433	    -47.76209416	     39.80850494	     53.76712721	      0.93841340	     15.63507116	      0.00000000	      0.00000000	     38.98293462	    -36.71858202	     18.82770321	     55.53926177	      0.96934298	    -15.62148859	      0.00000000	      0.00000000	    -20.28760894	     14.53619264	    -37.42150949	    -89.91984182	    -57.74164013	    -64.83770856	     94.06087792	     52.77353515	      0.00000000	      0.00000000	    -87.86201315	    -62.02280254	    -16.39684737	     45.66135438	     11.75682993	      0.00000000	      0.00000000
      1.35277778	      9.45373768	     -7.35250451	    -87.95825046	      0.86289257	      0.74915307	      0.15811815	     30.96083036	    -48.11538467	     39.80502280	     53.37562569	      0.93158041	     15.20483577	      0.00000000	      0.00000000	     39.09891821	    -36.87670408	     18.24478232	     55.72658669	      0.97261242	    -15.63331557	      0.00000000	      0.00000000	    -19.77741817	     14.17022060	    -37.84947208	    -89.92275815	    -56.74583367	    -66.48485311	     95.91471429	     52.79797588	      0.00000000	      0.00000000	    -87.71684691	    -60.79984844	    -16.84307784	     46.79690511	     12.06895939	      0.00000000	      0.00000000
      1.35555556	      9.55601816	     -7.07485462	    -87.44645155	      0.87032784	      0.74794182	      0.16016403	     30.07369620	    -48.52154410	     39.79858771	     52.79612292	      0.92146618	     14.63937653	      0.00000000	      0.00000000	     39.24053119	    -37.21757686	     17.34124530	     56.00681733	      0.97750337	    -15.74569748	      0.00000000	      0.00000000	    -19.06038062	     13.67349203	    -38.44606841	    -89.92590984	    -55.45469657	    -68.89564280	     98.59372728	     52.90801971	      0.00000000	      0.00000000	    -87.25416855	    -58.91699336	    -17.24146557	     48.22760796	     12.49460539	      0.00000000	      0.00000000
      1.35833333	      9.64462435	     -6.78917712	    -86.91642053	      0.87778005	      0.74660882	      0.16210971	     29.17838386	    -48.89793206	     39.79122798	     52.26590088	      0.91221206	     13.89466087	      0.00000000	      0.00000000	     39.39928478	    -37.59446245	     16.35311406	     56.23457601	      0.98147850	    -15.75086439	      0.00000000	      0.00000000	    -18.34303982	     13.14859971	    -38.90126572	    -89.92837500	    -54.03334083	    -71.19475564	    101.20284761	     52.87775287	      0.00000000	      0.00000000	    -87.01966560	    -57.16418378	    -17.82845973	     49.89487071	     12.92019775	      0.00000000	      0.00000000
      1.36111111	      9.65423796	     -6.47025284	    -86.43132245	      0.88528560	      0.74508572	      0.16406639	     28.34796840	    -49.16106239	     39.78223885	     51.79405138	      0.90397673	     13.10761296	      0.00000000	      0.00000000	     39.66689598	    -38.05128356	     15.40226495	     56.50242182	      0.98615330	    -15.66907520	      0.00000000	      0.00000000	    -17.59611376	     12.65362294	    -39.34238487	    -89.92986966	    -52.82877358	    -73.45568117	    103.77580890	     52.55643144	      0.00000000	      0.00000000	    -86.87380693	    -55.33732343	    -18.44049364	     51.63290085	     13.18861918	      0.00000000	      0.00000000
      1.36388889	      9.62140483	     -6.20765065	    -86.10556743	      0.89033851	      0.74391117	      0.16530458	     27.84430481	    -49.28500219	     39.77645170	     51.51004876	      0.89901995	     12.67754849	      0.00000000	      0.00000000	     39.93803541	    -38.39419601	     14.76165119	     56.68393121	      0.98932123	    -15.64647503	      0.00000000	      0.00000000	    -17.03532548	     12.32800429	    -39.67831414	    -89.93025823	    -52.14632764	    -74.49034679	    106.49342790	     45.74309583	      0.00000000	      0.00000000	    -86.83556839	    -53.95774554	    -19.15983921	     53.02947307	     12.85880037	      0.00000000	      0.00000000
      1.36666667	      9.54252958	     -5.80310899	    -85.64527927	      0.89790041	      0.74224648	      0.16737958	     27.05868718	    -49.42523075	     39.76435496	     51.06341323	      0.89122469	     11.94190430	      0.00000000	      0.00000000	     40.29158417	    -38.96059426	     13.73674191	     56.88630812	      0.99285338	    -15.59267745	      0.00000000	      0.00000000	    -16.15795487	     11.88205058	    -39.94002939	    -89.93107695	    -50.92362921	    -76.76147378	    108.85958942	     45.93680803	      0.00000000	      0.00000000	    -86.16823358	    -52.34434898	    -19.08208593	     54.09986090	     13.14857373	      0.00000000	      0.00000000
